<svg xmlns="http://www.w3.org/2000/svg" xmlns:xlink="http://www.w3.org/1999/xlink" viewBox="0,0,256,256" width="300px" height="300px" fill-rule="nonzero"><defs><linearGradient x1="47.392" y1="4.534" x2="58.664" y2="93.73" gradientUnits="userSpaceOnUse" id="color-1"><stop offset="0.004" stop-color="#190066"></stop><stop offset="0.349" stop-color="#190066"></stop><stop offset="1" stop-color="#190066"></stop></linearGradient></defs><g fill-opacity="0" fill="#ffffff" fill-rule="nonzero" stroke="none" stroke-width="1" stroke-linecap="butt" stroke-linejoin="miter" stroke-miterlimit="10" stroke-dasharray="" stroke-dashoffset="0" font-family="none" font-weight="none" font-size="none" text-anchor="none" style="mix-blend-mode: normal"><path d="M0,256v-256h256v256z" id="bgRectangle"></path></g><g fill="none" fill-rule="nonzero" stroke="none" stroke-width="1" stroke-linecap="butt" stroke-linejoin="miter" stroke-miterlimit="10" stroke-dasharray="" stroke-dashoffset="0" font-family="none" font-weight="none" font-size="none" text-anchor="none" style="mix-blend-mode: normal"><g transform="scale(2.56,2.56)"><path d="M99.681,90.145l-12.035,-11.432c2.709,-3.151 4.358,-7.238 4.358,-11.71c0,-6.227 -3.18,-11.723 -8,-14.956v-20.044c0,-0.297 -0.132,-0.578 -0.359,-0.768l-24,-20c-0.18,-0.15 -0.406,-0.232 -0.641,-0.232h-36c-0.553,0 -1,0.448 -1,1v80c0,0.552 0.447,1 1,1h60c0.553,0 1,-0.448 1,-1v-10.077c0.795,-0.536 1.61,-1.187 2.309,-1.839l11.983,11.502c0.193,0.186 0.443,0.278 0.692,0.278c0.263,0 0.525,-0.103 0.722,-0.308c0.382,-0.398 0.369,-1.031 -0.029,-1.414z" fill="#000000" opacity="0.35"></path><path d="M80.004,29.003v60h-60v-80h36z" fill="#89b0ff"></path><path d="M80.004,29.003h-24v-19z" fill="#ffa680"></path><circle cx="71.004" cy="64.003" r="17" fill="#cce7ff"></circle><path d="M30,37c0,-0.552 0.448,-1 1,-1h37c0.552,0 1,0.448 1,1c0,0.552 -0.448,1 -1,1h-37c-0.552,0 -1,-0.448 -1,-1zM96.726,88.696c-0.196,0.205 -0.459,0.308 -0.722,0.308c-0.249,0 -0.499,-0.093 -0.692,-0.278l-12.056,-11.574c-0.699,0.652 -1.458,1.237 -2.252,1.774v10.078c0,0.552 -0.447,1 -1,1h-60c-0.553,0 -1,-0.448 -1,-1v-80c0,-0.552 0.447,-1 1,-1h36c0.234,0 0.461,0.082 0.641,0.232l24,20c0.228,0.19 0.359,0.471 0.359,0.768v20.044c4.82,3.233 8,8.729 8,14.956c0,4.472 -1.649,8.559 -4.358,11.71l12.051,11.568c0.398,0.383 0.41,1.015 0.029,1.414zM57.004,28.003h20.238l-20.238,-16.864zM79.004,80.102c-2.411,1.21 -5.123,1.901 -8,1.901c-7.82,0 -14.473,-5.022 -16.951,-12.003h-23.053c-0.552,0 -1,-0.448 -1,-1c0,-0.552 0.448,-1 1,-1h22.467c-0.293,-1.288 -0.463,-2.622 -0.463,-3.997c0,-1.737 0.261,-3.413 0.722,-5.003h-22.726c-0.552,0 -1,-0.448 -1,-1c0,-0.552 0.448,-1 1,-1h23.423c1.65,-3.893 4.64,-7.076 8.38,-9h-31.803c-0.552,0 -1,-0.448 -1,-1c0,-0.552 0.448,-1 1,-1c0,0 39.171,0.003 40.004,0.003c2.876,0 5.586,0.695 8,1.9v-17.9h-23c-0.553,0 -1,-0.448 -1,-1v-19h-34v78h58zM87.004,64.003c0,-8.822 -7.178,-16 -16,-16c-5.482,0 -10.314,2.781 -13.197,6.997h15.193c1.657,0 3,1.343 3,3c0,1.657 -1.343,3 -3,3h-17.696c-0.192,0.973 -0.3,1.975 -0.3,3.003c0,0.678 0.061,1.341 0.146,1.997h17.85c1.657,0 3,1.343 3,3c0,1.657 -1.343,3 -3,3h-15.828c2.77,4.776 7.925,8.003 13.832,8.003c8.822,0 16,-7.177 16,-16z" fill="url(#color-1)"></path></g></g></svg>